<svg xmlns="http://www.w3.org/2000/svg">
    <symbol viewBox="0 0 24 24" id="svg-arrow-down">
        <path d="M11.6603 16.25L3 8L20.3206 8L11.6603 16.25Z"/>
    </symbol>

    <symbol viewBox="0 0 16 16" id="svg-arrow-up">
        <path fill-rule="evenodd" clip-rule="evenodd" d="M7.8 6L10.3657 8.56569C10.6781 8.8781 10.6781 9.38464 10.3657 9.69706C10.0533 10.0095 9.54673 10.0095 9.23431 9.69706L7.8 8.26274L6.36569 9.69706C6.05327 10.0095 5.54673 10.0095 5.23431 9.69706C4.9219 9.38464 4.9219 8.8781 5.23431 8.56569L7.8 6Z"/>
    </symbol>

    <symbol viewBox="0 0 24 24" id="svg-facebook">
        <path d="M14.1667 13.4167H17.0834L18.25 8.75H14.1667V6.41667C14.1667 5.215 14.1667 4.08333 16.5 4.08333H18.25V0.163333C17.8697 0.113166 16.4335 0 14.9168 0C11.7493 0 9.5 1.93317 9.5 5.48333V8.75H6V13.4167H9.5V23.3334H14.1667V13.4167Z"/>
    </symbol>

    <symbol viewBox="0 0 24 24" id="svg-instagram">
        <path d="M11.8836 2.18262C14.5069 2.18262 14.8342 2.19228 15.8635 2.24055C16.8918 2.28882 17.5918 2.45007 18.2077 2.68951C18.845 2.93475 19.3818 3.2669 19.9187 3.80276C20.4096 4.28541 20.7895 4.86925 21.0319 5.51365C21.2704 6.12869 21.4326 6.82965 21.4808 7.85793C21.5263 8.8872 21.5388 9.21451 21.5388 11.8378C21.5388 14.4611 21.5292 14.7884 21.4808 15.8177C21.4326 16.8459 21.2704 17.5459 21.0319 18.162C20.7902 18.8066 20.4103 19.3907 19.9187 19.8728C19.4359 20.3636 18.8521 20.7434 18.2077 20.9861C17.5927 21.2245 16.8918 21.3867 15.8635 21.4351C14.8342 21.4804 14.5069 21.493 11.8836 21.493C9.26028 21.493 8.93297 21.4833 7.90377 21.4351C6.87549 21.3867 6.17549 21.2245 5.55949 20.9861C4.91484 20.7442 4.3309 20.3642 3.8486 19.8728C3.35754 19.3903 2.97763 18.8064 2.73535 18.162C2.49591 17.5469 2.33466 16.8459 2.28639 15.8177C2.24101 14.7884 2.22845 14.4611 2.22845 11.8378C2.22845 9.21451 2.23811 8.8872 2.28639 7.85793C2.33466 6.82869 2.49591 6.12965 2.73535 5.51365C2.97696 4.86886 3.35696 4.28486 3.8486 3.80276C4.33104 3.31153 4.91494 2.9316 5.55949 2.68951C6.17549 2.45007 6.87452 2.28882 7.90377 2.24055C8.93297 2.19517 9.26028 2.18262 11.8836 2.18262ZM11.8836 7.0102C10.6033 7.0102 9.3754 7.51882 8.47002 8.42416C7.56466 9.32954 7.05604 10.5574 7.05604 11.8378C7.05604 13.1182 7.56466 14.346 8.47002 15.2514C9.3754 16.1567 10.6033 16.6653 11.8836 16.6653C13.164 16.6653 14.3919 16.1567 15.2973 15.2514C16.2026 14.346 16.7112 13.1182 16.7112 11.8378C16.7112 10.5574 16.2026 9.32954 15.2973 8.42416C14.3919 7.51882 13.164 7.0102 11.8836 7.0102ZM18.1595 6.76883C18.1595 6.44873 18.0324 6.14176 17.806 5.91542C17.5797 5.68908 17.2727 5.56192 16.9526 5.56192C16.6325 5.56192 16.3255 5.68908 16.0992 5.91542C15.8729 6.14176 15.7457 6.44873 15.7457 6.76883C15.7457 7.08891 15.8729 7.39589 16.0992 7.62223C16.3255 7.84856 16.6325 7.97572 16.9526 7.97572C17.2727 7.97572 17.5797 7.84856 17.806 7.62223C18.0324 7.39589 18.1595 7.08891 18.1595 6.76883ZM11.8836 8.94124C12.6518 8.94124 13.3886 9.24637 13.9318 9.7896C14.475 10.3328 14.7802 11.0695 14.7802 11.8378C14.7802 12.606 14.475 13.3428 13.9318 13.886C13.3886 14.4291 12.6518 14.7343 11.8836 14.7343C11.1154 14.7343 10.3787 14.4291 9.83545 13.886C9.29223 13.3428 8.98709 12.606 8.98709 11.8378C8.98709 11.0695 9.29223 10.3328 9.83545 9.7896C10.3787 9.24637 11.1154 8.94124 11.8836 8.94124Z"/>
    </symbol>

    <symbol viewBox="0 0 24 24" id="svg-like">
        <path d="M12 21.0011C11.355 20.4291 10.626 19.8341 9.85502 19.2011H9.84502C7.13002 16.9811 4.05302 14.4691 2.69402 11.4591C2.24754 10.5009 2.01093 9.45825 2.00001 8.40112C1.99703 6.95061 2.57879 5.56011 3.61383 4.54389C4.64887 3.52767 6.04981 2.97152 7.50002 3.00112C8.68065 3.00299 9.83586 3.3442 10.828 3.98412C11.264 4.26709 11.6584 4.60938 12 5.00112C12.3435 4.61092 12.738 4.26883 13.173 3.98412C14.1647 3.34408 15.3197 3.00284 16.5 3.00112C17.9502 2.97152 19.3511 3.52767 20.3862 4.54389C21.4212 5.56011 22.003 6.95061 22 8.40112C21.9898 9.45994 21.7532 10.5043 21.306 11.4641C19.947 14.4741 16.871 16.9851 14.156 19.2011L14.146 19.2091C13.374 19.8381 12.646 20.4331 12.001 21.0091L12 21.0011ZM7.50002 5.00112C6.56853 4.98947 5.67009 5.34597 5.00002 5.99312C4.35441 6.62729 3.99358 7.49617 3.99994 8.40112C4.01135 9.17162 4.18585 9.93098 4.51202 10.6291C5.15353 11.9278 6.01913 13.1032 7.06902 14.1011C8.06002 15.1011 9.20002 16.0691 10.186 16.8831C10.459 17.1081 10.737 17.3351 11.015 17.5621L11.19 17.7051C11.457 17.9231 11.733 18.1491 12 18.3711L12.013 18.3591L12.019 18.3541H12.025L12.034 18.3471H12.039H12.044L12.062 18.3321L12.103 18.2991L12.11 18.2931L12.121 18.2851H12.127L12.136 18.2771L12.8 17.7321L12.974 17.5891C13.255 17.3601 13.533 17.1331 13.806 16.9081C14.792 16.0941 15.933 15.1271 16.924 14.1221C17.974 13.1247 18.8397 11.9496 19.481 10.6511C19.8131 9.94692 19.9901 9.17963 20 8.40112C20.0042 7.49896 19.6435 6.63342 19 6.00112C18.3312 5.35104 17.4326 4.99161 16.5 5.00112C15.3619 4.99145 14.2739 5.46849 13.51 6.31212L12 8.05212L10.49 6.31212C9.72609 5.46849 8.6381 4.99145 7.50002 5.00112Z"/>
    </symbol>

    <symbol viewBox="0 0 24 24" id="svg-shopping-bag">
        <path d="M7.08258 8V6C7.08258 4.67916 7.15351 2.93397 8.08258 2C9.01166 1.06603 10.7687 1 12.0826 1C13.3965 1 15.1535 1.06603 16.0826 2C17.0117 2.93397 17.0826 4.67916 17.0826 6V8H20.0826C20.3454 8 20.8968 7.81321 21.0826 8C21.2684 8.18679 21.0826 8.73583 21.0826 9V21C21.0826 21.2642 21.2684 21.8132 21.0826 22C20.8968 22.1868 20.3454 22 20.0826 22H4.08258C3.8198 22 3.2684 22.1868 3.08258 22C2.89677 21.8132 3.08258 21.2642 3.08258 21V9C3.08258 8.73583 2.89677 8.18679 3.08258 8C3.2684 7.81321 3.8198 8 4.08258 8H7.08258ZM7.08258 10H5.08258V20H19.0826V10H17.0826V12H15.0826V10H9.08258V12H7.08258V10ZM9.08258 8H15.0826V6C15.0826 5.2075 14.6401 4.56038 14.0826 4C13.5252 3.43962 12.871 3 12.0826 3C11.2942 3 10.64 3.43962 10.0826 4C9.52514 4.56038 9.08258 5.2075 9.08258 6V8Z"/>
    </symbol>

    <symbol viewBox="0 0 24 24" id="svg-twitter">
        <path d="M23.7801 4.29536C22.8895 4.68933 21.9449 4.94808 20.9778 5.06302C21.9972 4.45336 22.7601 3.49387 23.1245 2.36336C22.1678 2.93269 21.119 3.33169 20.0258 3.54752C19.2915 2.76187 18.3182 2.24082 17.2572 2.06537C16.1963 1.88993 15.1071 2.06993 14.1589 2.57738C13.2108 3.08484 12.4569 3.89132 12.0144 4.87145C11.5719 5.85158 11.4657 6.95043 11.7121 7.99719C9.77213 7.89995 7.87422 7.3958 6.14167 6.51746C4.40911 5.63913 2.88065 4.40625 1.6555 2.89886C1.22184 3.64372 0.993943 4.49045 0.995163 5.35236C0.995163 7.04402 1.85616 8.53852 3.16516 9.41352C2.39051 9.38914 1.6329 9.17993 0.955503 8.80336V8.86402C0.955733 9.99067 1.34559 11.0826 2.05899 11.9546C2.77238 12.8266 3.76539 13.4251 4.86966 13.6485C4.15055 13.8434 3.39652 13.8721 2.66466 13.7325C2.97601 14.7023 3.58284 15.5504 4.40019 16.1582C5.21754 16.7659 6.20448 17.1028 7.22283 17.1217C6.21072 17.9166 5.05187 18.5042 3.81252 18.8509C2.57318 19.1976 1.27765 19.2967 0 19.1424C2.23031 20.5767 4.82661 21.3382 7.47833 21.3357C16.4535 21.3357 21.3616 13.9005 21.3616 7.45236C21.3616 7.24236 21.3558 7.03002 21.3465 6.82236C22.3018 6.13189 23.1263 5.27655 23.7813 4.29652L23.7801 4.29536Z"/>
    </symbol>

    <symbol viewBox="0 0 24 24" id="svg-menu-cart">
        <path d="M14.5834 20.8333C15.1359 20.8333 15.6658 20.6138 16.0566 20.2231C16.4473 19.8324 16.6667 19.3025 16.6667 18.75C16.6667 18.1974 16.4473 17.6675 16.0566 17.2768C15.6658 16.8861 15.1359 16.6666 14.5834 16.6666C14.0309 16.6666 13.501 16.8861 13.1103 17.2768C12.7196 17.6675 12.5001 18.1974 12.5001 18.75C12.5001 19.3025 12.7196 19.8324 13.1103 20.2231C13.501 20.6138 14.0309 20.8333 14.5834 20.8333ZM7.29176 20.8333C7.8443 20.8333 8.3742 20.6138 8.7649 20.2231C9.1556 19.8324 9.3751 19.3025 9.3751 18.75C9.3751 18.1974 9.1556 17.6675 8.7649 17.2768C8.3742 16.8861 7.8443 16.6666 7.29176 16.6666C6.73923 16.6666 6.20933 16.8861 5.81863 17.2768C5.42792 17.6675 5.20843 18.1974 5.20843 18.75C5.20843 19.3025 5.42792 19.8324 5.81863 20.2231C6.20933 20.6138 6.73923 20.8333 7.29176 20.8333ZM20.873 6.16975C21.133 6.16136 21.3796 6.05217 21.5606 5.86525C21.7416 5.67834 21.8428 5.42836 21.8428 5.16819C21.8428 4.90801 21.7416 4.65804 21.5606 4.47112C21.3796 4.28421 21.133 4.17501 20.873 4.16663H19.674C18.7345 4.16663 17.922 4.81871 17.7178 5.73538L16.4126 11.6125C16.2084 12.5291 15.3959 13.1812 14.4563 13.1812H6.63135L5.12926 7.17079H14.8636C15.1212 7.15904 15.3644 7.04844 15.5425 6.86199C15.7206 6.67555 15.82 6.42761 15.82 6.16975C15.82 5.91189 15.7206 5.66395 15.5425 5.47751C15.3644 5.29106 15.1212 5.18046 14.8636 5.16871H5.12926C4.82475 5.16862 4.52422 5.23796 4.25053 5.37145C3.97684 5.50495 3.73718 5.69909 3.54978 5.93911C3.36238 6.17913 3.23217 6.45872 3.16905 6.75662C3.10593 7.05452 3.11156 7.36289 3.18552 7.65829L4.6876 13.6666C4.79588 14.1002 5.04602 14.485 5.39823 14.7601C5.75044 15.0351 6.18449 15.1844 6.63135 15.1843H14.4563C15.368 15.1845 16.2524 14.8736 16.9636 14.3032C17.6748 13.7327 18.1701 12.9368 18.3678 12.0468L19.674 6.16975H20.873Z"/>
    </symbol>

    <symbol viewBox="0 0 24 24" id="svg-menu-catalog">
        <path d="M6.57143 2H2V6.57143H6.57143V2Z"/>
        <path d="M6.57143 9.31433H2V13.8858H6.57143V9.31433Z"/>
        <path d="M6.57143 16.6285H2V21.2H6.57143V16.6285Z"/>
        <path d="M13.8849 9.31433H9.31348V13.8858H13.8849V9.31433Z"/>
        <path d="M13.8849 16.6285H9.31348V21.2H13.8849V16.6285Z"/>
        <path d="M13.8849 2H9.31348V6.57143H13.8849V2Z"/>
        <path d="M21.1994 9.31433H16.628V13.8858H21.1994V9.31433Z"/>
        <path d="M21.1994 16.6285H16.628V21.2H21.1994V16.6285Z"/>
        <path d="M21.1994 2H16.628V6.57143H21.1994V2Z"/>
    </symbol>

    <symbol viewBox="0 0 24 24" id="svg-menu-search">
        <path d="M5.88763 5.88157C4.72895 7.03854 4.05504 8.59379 4.00322 10.2304C3.95141 11.867 4.52559 13.4618 5.60877 14.6897C6.69194 15.9177 8.20258 16.6864 9.83285 16.8393C11.4334 16.9893 13.031 16.5346 14.3118 15.5668L17.643 18.8987C17.7258 18.9816 17.8242 19.0473 17.9324 19.0921C18.0407 19.137 18.1567 19.16 18.2738 19.16C18.391 19.16 18.507 19.137 18.6152 19.0921C18.7234 19.0473 18.8218 18.9816 18.9046 18.8987C18.9875 18.8159 19.0532 18.7176 19.098 18.6093C19.1429 18.5011 19.1659 18.3851 19.1659 18.2679C19.1659 18.1508 19.1429 18.0348 19.098 17.9265C19.0532 17.8183 18.9875 17.72 18.9046 17.6371L15.5729 14.3062C16.5382 13.0252 16.9908 11.4286 16.8399 9.82959C16.6862 8.2007 15.9177 6.69155 14.6908 5.60916C13.4638 4.52678 11.8706 3.95248 10.2353 4.00308C8.59994 4.05368 7.0453 4.72539 5.88763 5.88157ZM5.88763 5.88157L5.95829 5.95233L5.88763 5.88157ZM13.7256 7.14382C14.1632 7.57432 14.5112 8.08719 14.7496 8.65285C14.9879 9.21851 15.1119 9.82577 15.1144 10.4396C15.1169 11.0534 14.9979 11.6617 14.7641 12.2293C14.5304 12.7969 14.1866 13.3126 13.7525 13.7466C13.3185 14.1807 12.8028 14.5245 12.2352 14.7582C11.6676 14.992 11.0594 15.111 10.4455 15.1085C9.83173 15.106 9.22447 14.982 8.65881 14.7437C8.09315 14.5053 7.58028 14.1573 7.14978 13.7197C6.28947 12.8453 5.80954 11.6663 5.81453 10.4396C5.81953 9.21291 6.30904 8.03789 7.17645 7.17049C8.04385 6.30308 9.21887 5.81357 10.4455 5.80857C11.6722 5.80358 12.8512 6.28351 13.7256 7.14382Z"/>
    </symbol>
</svg>
